<mxfile host="app.diagrams.net" modified="2023-03-03T23:48:51.422Z" agent="5.0 (Macintosh; Intel Mac OS X 10_15_7) AppleWebKit/537.36 (KHTML, like Gecko) Chrome/110.0.0.0 Safari/537.36" etag="yYFscz7QzmQC4N-JDQAM" version="20.8.20" type="github">
  <diagram name="Page-1" id="1_VBY31vtWC5b1pm4Qgb">
    <mxGraphModel dx="1435" dy="902" grid="1" gridSize="10" guides="1" tooltips="1" connect="1" arrows="1" fold="1" page="1" pageScale="1" pageWidth="850" pageHeight="1100" math="0" shadow="0">
      <root>
        <mxCell id="0" />
        <mxCell id="1" parent="0" />
        <mxCell id="GcOYVShA0cxW18WvW7lh-1" value="Fanstel BT840 or BT40(?)" style="rounded=0;whiteSpace=wrap;html=1;align=center;labelPosition=center;verticalLabelPosition=top;verticalAlign=bottom;" parent="1" vertex="1">
          <mxGeometry x="40" y="80" width="120" height="520" as="geometry" />
        </mxCell>
        <mxCell id="GcOYVShA0cxW18WvW7lh-15" style="edgeStyle=elbowEdgeStyle;rounded=0;orthogonalLoop=1;jettySize=auto;html=1;exitX=0;exitY=0.5;exitDx=0;exitDy=0;exitPerimeter=0;fontSize=9;endArrow=none;endFill=0;" parent="1" source="GcOYVShA0cxW18WvW7lh-2" edge="1">
          <mxGeometry relative="1" as="geometry">
            <mxPoint x="435" y="70" as="targetPoint" />
          </mxGeometry>
        </mxCell>
        <mxCell id="GcOYVShA0cxW18WvW7lh-16" style="edgeStyle=elbowEdgeStyle;rounded=0;orthogonalLoop=1;jettySize=auto;html=1;exitX=1;exitY=0.5;exitDx=0;exitDy=0;exitPerimeter=0;fontSize=9;endArrow=none;endFill=0;" parent="1" source="GcOYVShA0cxW18WvW7lh-2" edge="1">
          <mxGeometry relative="1" as="geometry">
            <mxPoint x="435" y="140" as="targetPoint" />
          </mxGeometry>
        </mxCell>
        <mxCell id="GcOYVShA0cxW18WvW7lh-2" value="32.768 kHz" style="pointerEvents=1;verticalLabelPosition=bottom;shadow=0;dashed=0;align=center;html=1;verticalAlign=top;shape=mxgraph.electrical.miscellaneous.crystal_1;rotation=90;" parent="1" vertex="1">
          <mxGeometry x="410" y="95" width="50" height="20" as="geometry" />
        </mxCell>
        <mxCell id="GcOYVShA0cxW18WvW7lh-3" value="12p" style="pointerEvents=1;verticalLabelPosition=bottom;shadow=0;dashed=0;align=center;html=1;verticalAlign=top;shape=mxgraph.electrical.capacitors.capacitor_1;" parent="1" vertex="1">
          <mxGeometry x="460" y="130" width="33.33" height="20" as="geometry" />
        </mxCell>
        <mxCell id="GcOYVShA0cxW18WvW7lh-12" style="edgeStyle=elbowEdgeStyle;rounded=0;orthogonalLoop=1;jettySize=auto;html=1;exitX=1;exitY=0.5;exitDx=0;exitDy=0;exitPerimeter=0;fontSize=9;endArrow=none;endFill=0;entryX=1;entryY=0.5;entryDx=0;entryDy=0;entryPerimeter=0;" parent="1" source="GcOYVShA0cxW18WvW7lh-5" target="GcOYVShA0cxW18WvW7lh-3" edge="1">
          <mxGeometry relative="1" as="geometry">
            <mxPoint x="540" y="130" as="targetPoint" />
            <Array as="points">
              <mxPoint x="530" y="100" />
            </Array>
          </mxGeometry>
        </mxCell>
        <mxCell id="GcOYVShA0cxW18WvW7lh-5" value="12p" style="pointerEvents=1;verticalLabelPosition=bottom;shadow=0;dashed=0;align=center;html=1;verticalAlign=top;shape=mxgraph.electrical.capacitors.capacitor_1;" parent="1" vertex="1">
          <mxGeometry x="460" y="60" width="33.33" height="20" as="geometry" />
        </mxCell>
        <mxCell id="GcOYVShA0cxW18WvW7lh-10" style="edgeStyle=elbowEdgeStyle;rounded=0;orthogonalLoop=1;jettySize=auto;html=1;exitX=1;exitY=0.5;exitDx=0;exitDy=0;entryX=0;entryY=0.5;entryDx=0;entryDy=0;entryPerimeter=0;fontSize=9;endArrow=none;endFill=0;" parent="1" source="GcOYVShA0cxW18WvW7lh-8" target="GcOYVShA0cxW18WvW7lh-5" edge="1">
          <mxGeometry relative="1" as="geometry" />
        </mxCell>
        <mxCell id="GcOYVShA0cxW18WvW7lh-8" value="CAS3" style="rounded=0;whiteSpace=wrap;html=1;fontSize=9;" parent="1" vertex="1">
          <mxGeometry x="160" y="85" width="60" height="10" as="geometry" />
        </mxCell>
        <mxCell id="GcOYVShA0cxW18WvW7lh-11" style="edgeStyle=elbowEdgeStyle;rounded=0;orthogonalLoop=1;jettySize=auto;html=1;exitX=1;exitY=0.5;exitDx=0;exitDy=0;entryX=0;entryY=0.5;entryDx=0;entryDy=0;entryPerimeter=0;fontSize=9;endArrow=none;endFill=0;" parent="1" source="GcOYVShA0cxW18WvW7lh-9" target="GcOYVShA0cxW18WvW7lh-3" edge="1">
          <mxGeometry relative="1" as="geometry" />
        </mxCell>
        <mxCell id="GcOYVShA0cxW18WvW7lh-9" value="CAS4" style="rounded=0;whiteSpace=wrap;html=1;fontSize=9;" parent="1" vertex="1">
          <mxGeometry x="160" y="95" width="60" height="10" as="geometry" />
        </mxCell>
        <mxCell id="GcOYVShA0cxW18WvW7lh-14" style="edgeStyle=elbowEdgeStyle;rounded=0;orthogonalLoop=1;jettySize=auto;html=1;exitX=0.5;exitY=0;exitDx=0;exitDy=0;exitPerimeter=0;fontSize=9;endArrow=none;endFill=0;" parent="1" source="GcOYVShA0cxW18WvW7lh-13" edge="1">
          <mxGeometry relative="1" as="geometry">
            <mxPoint x="530" y="100" as="targetPoint" />
            <Array as="points">
              <mxPoint x="570" y="110" />
            </Array>
          </mxGeometry>
        </mxCell>
        <mxCell id="GcOYVShA0cxW18WvW7lh-13" value="" style="pointerEvents=1;verticalLabelPosition=bottom;shadow=0;dashed=0;align=center;html=1;verticalAlign=top;shape=mxgraph.electrical.signal_sources.signal_ground;fontSize=9;" parent="1" vertex="1">
          <mxGeometry x="560" y="115" width="20" height="15" as="geometry" />
        </mxCell>
        <mxCell id="GcOYVShA0cxW18WvW7lh-18" value="BME280 Humidity &amp;amp; Pressure" style="whiteSpace=wrap;html=1;aspect=fixed;fontSize=9;" parent="1" vertex="1">
          <mxGeometry x="425" y="180" width="50" height="50" as="geometry" />
        </mxCell>
        <mxCell id="GcOYVShA0cxW18WvW7lh-20" value="CAS1" style="rounded=0;whiteSpace=wrap;html=1;fontSize=9;" parent="1" vertex="1">
          <mxGeometry x="160" y="210" width="60" height="10" as="geometry" />
        </mxCell>
        <mxCell id="GcOYVShA0cxW18WvW7lh-21" value="CAS2" style="rounded=0;whiteSpace=wrap;html=1;fontSize=9;" parent="1" vertex="1">
          <mxGeometry x="160" y="200" width="60" height="10" as="geometry" />
        </mxCell>
        <mxCell id="GcOYVShA0cxW18WvW7lh-22" value="CAS5" style="rounded=0;whiteSpace=wrap;html=1;fontSize=9;" parent="1" vertex="1">
          <mxGeometry x="160" y="190" width="60" height="10" as="geometry" />
        </mxCell>
        <mxCell id="GcOYVShA0cxW18WvW7lh-23" value="CAS6" style="rounded=0;whiteSpace=wrap;html=1;fontSize=9;" parent="1" vertex="1">
          <mxGeometry x="160" y="180" width="60" height="10" as="geometry" />
        </mxCell>
        <mxCell id="GcOYVShA0cxW18WvW7lh-28" value="BMI270 IMU" style="whiteSpace=wrap;html=1;aspect=fixed;fontSize=9;" parent="1" vertex="1">
          <mxGeometry x="425" y="230" width="50" height="50" as="geometry" />
        </mxCell>
        <mxCell id="GcOYVShA0cxW18WvW7lh-29" value="MAX30101 Pulse-Oximeter &amp;amp; Heart Rate" style="whiteSpace=wrap;html=1;aspect=fixed;fontSize=9;" parent="1" vertex="1">
          <mxGeometry x="425" y="280" width="50" height="50" as="geometry" />
        </mxCell>
        <mxCell id="GcOYVShA0cxW18WvW7lh-30" value="CAS16" style="rounded=0;whiteSpace=wrap;html=1;fontSize=9;" parent="1" vertex="1">
          <mxGeometry x="160" y="580" width="60" height="10" as="geometry" />
        </mxCell>
        <mxCell id="GcOYVShA0cxW18WvW7lh-31" value="CAS15" style="rounded=0;whiteSpace=wrap;html=1;fontSize=9;" parent="1" vertex="1">
          <mxGeometry x="160" y="570" width="60" height="10" as="geometry" />
        </mxCell>
        <mxCell id="GcOYVShA0cxW18WvW7lh-33" value="SWDCLK" style="edgeStyle=elbowEdgeStyle;rounded=0;orthogonalLoop=1;jettySize=auto;html=1;exitX=0;exitY=0.25;exitDx=0;exitDy=0;entryX=1;entryY=0.5;entryDx=0;entryDy=0;fontSize=9;endArrow=blockThin;endFill=1;startArrow=none;startFill=0;" parent="1" source="GcOYVShA0cxW18WvW7lh-32" target="GcOYVShA0cxW18WvW7lh-31" edge="1">
          <mxGeometry relative="1" as="geometry" />
        </mxCell>
        <mxCell id="GcOYVShA0cxW18WvW7lh-32" value="J202" style="rounded=0;whiteSpace=wrap;html=1;fontSize=9;horizontal=0;" parent="1" vertex="1">
          <mxGeometry x="302" y="560" width="20" height="60" as="geometry" />
        </mxCell>
        <mxCell id="GcOYVShA0cxW18WvW7lh-34" value="SWDIO" style="edgeStyle=elbowEdgeStyle;rounded=0;orthogonalLoop=1;jettySize=auto;html=1;exitX=0;exitY=0.25;exitDx=0;exitDy=0;entryX=1;entryY=0.5;entryDx=0;entryDy=0;fontSize=9;endArrow=blockThin;endFill=1;startArrow=blockThin;startFill=1;elbow=horizontal;" parent="1" edge="1">
          <mxGeometry relative="1" as="geometry">
            <mxPoint x="302" y="584.5" as="sourcePoint" />
            <mxPoint x="220" y="584.5" as="targetPoint" />
          </mxGeometry>
        </mxCell>
        <mxCell id="GcOYVShA0cxW18WvW7lh-36" style="edgeStyle=elbowEdgeStyle;rounded=0;orthogonalLoop=1;jettySize=auto;html=1;exitX=0.5;exitY=0;exitDx=0;exitDy=0;exitPerimeter=0;entryX=0;entryY=0.75;entryDx=0;entryDy=0;fontSize=9;startArrow=none;startFill=0;endArrow=none;endFill=0;" parent="1" source="GcOYVShA0cxW18WvW7lh-35" target="GcOYVShA0cxW18WvW7lh-32" edge="1">
          <mxGeometry relative="1" as="geometry">
            <Array as="points">
              <mxPoint x="270" y="610" />
            </Array>
          </mxGeometry>
        </mxCell>
        <mxCell id="GcOYVShA0cxW18WvW7lh-35" value="" style="pointerEvents=1;verticalLabelPosition=bottom;shadow=0;dashed=0;align=center;html=1;verticalAlign=top;shape=mxgraph.electrical.signal_sources.signal_ground;fontSize=9;" parent="1" vertex="1">
          <mxGeometry x="260" y="620" width="20" height="15" as="geometry" />
        </mxCell>
        <mxCell id="GcOYVShA0cxW18WvW7lh-38" value="Debug/Flashing Interface, right-angle&lt;br style=&quot;border-color: var(--border-color);&quot;&gt;&lt;span style=&quot;&quot;&gt;2x5 1.27 mm pitch DK&amp;nbsp;&lt;/span&gt;SAM11216-ND" style="shape=note;size=20;whiteSpace=wrap;html=1;fontSize=9;align=left;" parent="1" vertex="1">
          <mxGeometry x="302" y="630" width="180" height="30" as="geometry" />
        </mxCell>
        <mxCell id="8WGUGqrqhZf74inOArIn-1" value="&lt;font style=&quot;font-size: 9px;&quot;&gt;Radiation Detector (PIN diode)&lt;/font&gt;" style="rounded=0;whiteSpace=wrap;html=1;" parent="1" vertex="1">
          <mxGeometry x="425" y="330" width="50" height="60" as="geometry" />
        </mxCell>
        <mxCell id="8WGUGqrqhZf74inOArIn-2" value="3v3 power subsystem" style="rounded=0;whiteSpace=wrap;html=1;fontSize=9;" parent="1" vertex="1">
          <mxGeometry x="650" y="70" width="120" height="60" as="geometry" />
        </mxCell>
        <mxCell id="8WGUGqrqhZf74inOArIn-3" value="1v8 power subsystem" style="rounded=0;whiteSpace=wrap;html=1;fontSize=9;" parent="1" vertex="1">
          <mxGeometry x="650" y="150" width="120" height="60" as="geometry" />
        </mxCell>
        <mxCell id="8WGUGqrqhZf74inOArIn-4" value="&lt;b&gt;Power Domains&lt;br&gt;&lt;/b&gt;&lt;br&gt;BT840 - 1v7 to 5v5&lt;br&gt;BME280 - 1v7 to 3v6&lt;br&gt;BMI270 - 1v7 to 3v6&lt;br&gt;MAX30101 - 1v7 to 2v0, 5V&lt;br&gt;APDS-9960 - 2v4 to 3v6&lt;br&gt;Radiation Detector - 9v ?" style="text;html=1;strokeColor=none;fillColor=none;align=left;verticalAlign=middle;whiteSpace=wrap;rounded=0;fontSize=9;" parent="1" vertex="1">
          <mxGeometry x="40" y="620" width="130" height="110" as="geometry" />
        </mxCell>
        <mxCell id="8WGUGqrqhZf74inOArIn-5" value="9v0 power subsystem" style="rounded=0;whiteSpace=wrap;html=1;fontSize=9;" parent="1" vertex="1">
          <mxGeometry x="650" y="230" width="120" height="60" as="geometry" />
        </mxCell>
        <mxCell id="ILjsv4NOO_y6TlwixxmM-1" value="&lt;font style=&quot;font-size: 9px;&quot;&gt;APDS-9960&lt;br&gt;Gesture Sensor&lt;br&gt;&lt;/font&gt;" style="rounded=0;whiteSpace=wrap;html=1;" vertex="1" parent="1">
          <mxGeometry x="425" y="390" width="50" height="60" as="geometry" />
        </mxCell>
        <mxCell id="ILjsv4NOO_y6TlwixxmM-2" value="http://www.vk2zay.net/article/265&lt;br&gt;https://www.analog.com/en/technical-articles/gammaphoton-radiation-detector.html&lt;br&gt;Elektor #419, Nov 2011&lt;br&gt;" style="text;html=1;strokeColor=none;fillColor=none;align=left;verticalAlign=middle;whiteSpace=wrap;rounded=0;" vertex="1" parent="1">
          <mxGeometry x="180" y="730" width="570" height="130" as="geometry" />
        </mxCell>
        <mxCell id="ILjsv4NOO_y6TlwixxmM-3" value="&lt;b&gt;Comms&lt;br&gt;&lt;/b&gt;&lt;br&gt;BT840 -&amp;nbsp;&lt;br&gt;BME280 - I2C or SPI&lt;br&gt;BMI270 - I2C or SPI, 2 interrupts&lt;br&gt;MAX30101 - I2C + nINT&lt;br&gt;APDS-9960 -&amp;nbsp;&lt;br&gt;Radiation Detector - GPIO, maybe analogue?" style="text;html=1;strokeColor=none;fillColor=none;align=left;verticalAlign=middle;whiteSpace=wrap;rounded=0;fontSize=9;" vertex="1" parent="1">
          <mxGeometry x="540" y="610" width="200" height="110" as="geometry" />
        </mxCell>
      </root>
    </mxGraphModel>
  </diagram>
</mxfile>
